<svg width="570" height="489" viewBox="0 0 570 489" fill="none" xmlns="http://www.w3.org/2000/svg">
<g id="xbox">
<g id="xbox-logo">
<path d="M284.967 72.0133C266.345 71.6518 244.648 78.7032 233.618 86.8396C250.434 85.3931 263.271 89.9133 284.787 100.943C306.015 89.5253 319.141 85.3932 335.594 86.8396C322.034 77.2568 302.687 72.0133 284.967 72.0133Z" fill="#F7F7F7"/>
<path d="M258.208 125.894C241.032 109.441 226.873 98.1742 216.803 99.8577C186.97 124.809 172.687 186.284 207.582 228.774C201.616 205.269 229.279 162.236 258.208 125.894Z" fill="#F7F7F7"/>
<path d="M351.686 234.56C349.879 217.202 320.587 178.871 284.787 150.484C254.05 173.808 219.154 214.128 217.707 235.644C216.919 247.362 251.699 267.286 284.606 267.286C318.237 267.286 353.004 247.216 351.686 234.56Z" fill="#F7F7F7"/>
<path d="M310.282 125.894C327.458 109.441 341.616 98.1742 351.687 99.8577C381.52 124.809 395.803 186.284 360.908 228.774C366.874 205.269 339.211 162.236 310.282 125.894Z" fill="#F7F7F7"/>
<path d="M284.967 72.0133C266.345 71.6518 244.648 78.7032 233.618 86.8396C250.434 85.3931 263.271 89.9133 284.787 100.943C306.015 89.5253 319.141 85.3932 335.594 86.8396C322.034 77.2568 302.687 72.0133 284.967 72.0133Z" stroke="#F7F7F7" stroke-linecap="round" stroke-linejoin="round"/>
<path d="M258.208 125.894C241.032 109.441 226.873 98.1742 216.803 99.8577C186.97 124.809 172.687 186.284 207.582 228.774C201.616 205.269 229.279 162.236 258.208 125.894Z" stroke="#F7F7F7" stroke-linecap="round" stroke-linejoin="round"/>
<path d="M351.686 234.56C349.879 217.202 320.587 178.871 284.787 150.484C254.05 173.808 219.154 214.128 217.707 235.644C216.919 247.362 251.699 267.286 284.606 267.286C318.237 267.286 353.004 247.216 351.686 234.56Z" stroke="#F7F7F7" stroke-linecap="round" stroke-linejoin="round"/>
<path d="M310.282 125.894C327.458 109.441 341.616 98.1742 351.687 99.8577C381.52 124.809 395.803 186.284 360.908 228.774C366.874 205.269 339.211 162.236 310.282 125.894Z" stroke="#F7F7F7" stroke-linecap="round" stroke-linejoin="round"/>
</g>
<path id="xbox-x1" d="M91.505 297.662H71.4353L112.117 353.893L68 414.825H87.8889L122.242 367.815L156.415 414.825H176.485L132.368 353.893L173.049 297.662H153.16L122.242 340.151L91.505 297.662Z" fill="#F7F7F7" stroke="#F7F7F7" stroke-linecap="round" stroke-linejoin="round"/>
<path id="xbox-x2" d="M416.778 297.662H396.709L437.391 353.893L393.273 414.825H413.162L447.516 367.815L481.688 414.825H501.758L457.641 353.893L498.323 297.662H478.434L447.516 340.151L416.778 297.662Z" fill="#F7F7F7" stroke="#F7F7F7" stroke-linecap="round" stroke-linejoin="round"/>
<path id="xbox-b" fill-rule="evenodd" clip-rule="evenodd" d="M160 362.5L170.5 348H186V298H240.5C280.5 298 285 342.5 260 354C291 364 286 415.5 244.5 415.5H186V362.5H160ZM204 348V313.5H240.5C264.5 313.5 262.5 348 240.5 348H204ZM204 399.5V363.5H243.5C268.5 363.5 268 399 243.5 399.5H204Z" fill="#F7F7F7" stroke="#F7F7F7" stroke-linecap="round" stroke-linejoin="round"/>
<path id="xbox-o" fill-rule="evenodd" clip-rule="evenodd" d="M286 355.5C287 310.5 317 294 345 294C375.5 294.5 401 315.5 401 355.5C400 401.5 370.5 416 345 417C301.5 416 287 384.5 286 355.5ZM345 310C324 308.923 305 322 304 355.5C304.5 380.5 316 400 345 400.5C367.5 398.5 381 382.5 381.5 355.5C381.5 325.5 364.5 311 345 310Z" fill="#F7F7F7" stroke="#F7F7F7"/>
</g>
</svg>
